<?xml version="1.0" encoding="UTF-8" standalone="no"?>
<!DOCTYPE svg PUBLIC "-//W3C//DTD SVG 1.1//EN" "http://www.w3.org/Graphics/SVG/1.1/DTD/svg11.dtd">
<svg width="100%" height="100%" viewBox="0 0 91 80" version="1.1" xmlns="http://www.w3.org/2000/svg" xmlns:xlink="http://www.w3.org/1999/xlink" xml:space="preserve" xmlns:serif="http://www.serif.com/" style="fill-rule:evenodd;clip-rule:evenodd;stroke-linejoin:round;stroke-miterlimit:2;">
    <g>
        <path d="M71.167,45.632C71.854,47.781 74.725,55.881 66.806,62.855C61.487,67.539 55.979,65.718 39.481,66.216C38.857,66.235 20.535,66.368 19.899,66.094C19.178,65.782 18.772,65.336 18.916,58.513C19.009,54.075 23.979,57.573 24.822,54.606C25.041,53.835 24.828,43.795 24.922,30.505C24.956,25.719 25.381,24.273 22.535,24.098C19.877,23.934 19.052,24.135 18.93,21.487C18.609,14.546 19.253,14.2 19.79,13.911C20.773,13.383 38.538,13.749 55.501,13.634C61.928,13.591 65.724,15.067 69.697,20.361C72.472,24.06 73.541,31.316 69.914,36.767C68.257,39.256 67.662,39.888 68.616,41.424C69.92,43.524 70.057,43.418 71.167,45.632ZM46.497,56.014C41.054,55.86 39.443,56.693 39.299,53.511C39.27,52.869 38.996,46.826 39.448,45.481C39.992,43.863 42.739,44.262 48.5,44.25C49.986,44.246 52.221,43.944 54.617,45.323C58.07,47.311 59.318,55.816 50.502,55.923C48.486,55.948 48.506,55.933 46.497,56.014ZM49.5,35.112C41.964,35.111 41.396,35.202 40.355,34.729C39.266,34.234 39.228,32.299 39.395,27.496C39.462,25.579 39.468,24.443 41.45,24.17C41.948,24.102 50.501,24.102 51.524,24.161C57.983,24.534 58.625,31.153 54.794,33.928C53.006,35.223 51.93,35.083 49.5,35.112Z" style="fill:white;fill-opacity:1;"/>
        <path d="M7.169,4.113C7.35,4.003 7.41,3.748 7.59,3.637C8.337,3.181 8.424,3.436 9.208,3.035C12.125,1.542 13.09,2.131 16.506,2.073C32.754,1.796 76.083,1.969 78.532,2.09C86.317,2.477 88.757,9.177 88.894,13.483C88.991,16.529 88.921,50.3 88.914,53.501C88.889,65.697 89.496,69.857 85.841,73.808C82.694,77.209 78.839,77.342 76.499,77.342C14.54,77.344 14.541,77.356 13.505,77.329C12.522,77.304 5.873,77.134 3.202,70.626C2.381,68.627 2.315,68.569 2.371,52.499C2.378,50.278 2.687,50.345 2.865,49.673C3.531,49.692 8.247,49.827 11.198,49.612C12.24,57.382 10.016,66.886 12.673,68.167C14.4,69 43.468,69.009 65.501,68.591C76.99,68.373 79.455,69.515 79.683,65.509C79.699,65.233 79.661,21.053 79.688,16.501C79.705,13.615 80.196,10.767 76.495,10.636C76.057,10.62 15.078,10.443 13.538,10.709C10.112,11.299 11.996,15.091 11.203,22.401C10.991,22.415 10.804,22.567 10.593,22.581C10.229,22.604 9.867,22.518 9.503,22.511C2.816,22.384 2.813,22.394 2.777,22.368C2.398,22.086 2.362,20.659 2.358,20.506C2.148,12.19 2.654,10.475 2.901,9.641C2.939,9.511 3.12,9.459 3.159,9.33C4.526,9.135 5.124,9.754 5.344,8.39C5.4,8.047 5.1,7.644 5.284,7.349C5.546,6.928 6.088,6.767 6.514,6.512C7.184,6.111 7.366,6.16 7.362,5.384C7.361,4.955 7.171,4.542 7.169,4.113Z" style="fill:white;fill-opacity:1;"/>
        <path d="M11.539,24.481C12.389,28.263 11.864,28.305 11.877,41.5C11.877,41.821 11.88,45.116 11.869,45.52C11.833,46.878 11.549,47.27 11.506,47.503C10.838,47.506 10.17,47.508 9.502,47.511C7.833,47.518 6.165,47.525 4.496,47.532C3.817,47.532 3.137,47.533 2.458,47.533C2.404,47.346 1.895,46.889 1.871,45.484C1.826,42.837 1.991,38.141 1.89,28.492C1.887,28.261 1.862,25.869 1.939,25.61C2.058,25.211 2.132,24.709 2.485,24.489C2.892,24.234 2.928,24.911 8.483,24.743C8.803,24.733 9.131,24.762 9.441,24.681C9.951,24.547 10.39,24.156 10.916,24.106C11.157,24.083 11.297,24.504 11.539,24.481Z" style="fill:rgb(181,13,14);fill-opacity:0.98;"/>
    </g>
</svg>
